<?xml version="1.0" standalone="no"?>
<!DOCTYPE svg PUBLIC "-//W3C//DTD SVG 20010904//EN"
 "http://www.w3.org/TR/2001/REC-SVG-20010904/DTD/svg10.dtd">
<svg version="1.0" xmlns="http://www.w3.org/2000/svg"
 width="128.000000pt" height="128.000000pt" viewBox="0 0 128.000000 128.000000"
 preserveAspectRatio="xMidYMid meet">
<metadata>
Created by potrace 1.11, written by Peter Selinger 2001-2013
</metadata>
<g transform="translate(0.000000,128.000000) scale(0.100000,-0.100000)"
fill="#000000" stroke="none">
<path d="M580 1254 c-117 -23 -207 -64 -264 -120 -37 -38 -54 -72 -61 -125 -3
-24 -8 -53 -10 -64 -2 -11 -4 -32 -4 -46 -1 -18 -8 -28 -21 -32 -16 -4 -20
-14 -21 -54 -1 -26 -2 -61 -4 -78 -2 -16 -4 -61 -6 -100 -3 -89 -12 -114 -54
-155 -41 -39 -53 -86 -35 -133 16 -39 49 -77 67 -77 7 0 13 -10 13 -23 0 -91
69 -195 143 -215 48 -13 171 -5 217 15 47 21 173 21 230 0 98 -35 216 -28 275
17 40 31 75 103 77 160 2 35 6 46 18 46 21 0 53 36 70 78 18 46 6 88 -40 138
-22 24 -40 52 -41 61 0 10 -2 25 -4 33 -1 9 -6 74 -10 145 -7 133 -8 140 -28
140 -7 0 -17 38 -25 95 -8 57 -22 111 -35 135 -30 53 -112 108 -212 139 -101
32 -154 36 -235 20z"/>
</g>
</svg>
